<svg width="106" height="106" viewBox="0 0 106 106" fill="none" xmlns="http://www.w3.org/2000/svg">
<g id="Group 1">
<path id="Line 4" d="M100.333 3.5C100.333 4.97276 101.527 6.16667 103 6.16667C104.473 6.16667 105.667 4.97276 105.667 3.5C105.667 2.02724 104.473 0.833333 103 0.833333C101.527 0.833333 100.333 2.02724 100.333 3.5ZM4.92308 4C5.19922 4 5.42308 3.77614 5.42308 3.5C5.42308 3.22386 5.19922 3 4.92308 3V4ZM8.76923 3C8.49309 3 8.26923 3.22386 8.26923 3.5C8.26923 3.77614 8.49309 4 8.76923 4V3ZM12.6154 4C12.8915 4 13.1154 3.77614 13.1154 3.5C13.1154 3.22386 12.8915 3 12.6154 3V4ZM16.4615 3C16.1854 3 15.9615 3.22386 15.9615 3.5C15.9615 3.77614 16.1854 4 16.4615 4V3ZM20.3077 4C20.5838 4 20.8077 3.77614 20.8077 3.5C20.8077 3.22386 20.5838 3 20.3077 3V4ZM24.1538 3C23.8777 3 23.6538 3.22386 23.6538 3.5C23.6538 3.77614 23.8777 4 24.1538 4V3ZM28 4C28.2761 4 28.5 3.77614 28.5 3.5C28.5 3.22386 28.2761 3 28 3V4ZM31.8462 3C31.57 3 31.3462 3.22386 31.3462 3.5C31.3462 3.77614 31.57 4 31.8462 4V3ZM35.6923 4C35.9684 4 36.1923 3.77614 36.1923 3.5C36.1923 3.22386 35.9684 3 35.6923 3V4ZM39.5385 3C39.2623 3 39.0385 3.22386 39.0385 3.5C39.0385 3.77614 39.2623 4 39.5385 4V3ZM43.3846 4C43.6608 4 43.8846 3.77614 43.8846 3.5C43.8846 3.22386 43.6608 3 43.3846 3V4ZM47.2308 3C46.9546 3 46.7308 3.22386 46.7308 3.5C46.7308 3.77614 46.9546 4 47.2308 4V3ZM51.0769 4C51.3531 4 51.5769 3.77614 51.5769 3.5C51.5769 3.22386 51.3531 3 51.0769 3V4ZM54.9231 3C54.6469 3 54.4231 3.22386 54.4231 3.5C54.4231 3.77614 54.6469 4 54.9231 4V3ZM58.7692 4C59.0454 4 59.2692 3.77614 59.2692 3.5C59.2692 3.22386 59.0454 3 58.7692 3V4ZM62.6154 3C62.3392 3 62.1154 3.22386 62.1154 3.5C62.1154 3.77614 62.3392 4 62.6154 4V3ZM66.4615 4C66.7377 4 66.9615 3.77614 66.9615 3.5C66.9615 3.22386 66.7377 3 66.4615 3V4ZM70.3077 3C70.0315 3 69.8077 3.22386 69.8077 3.5C69.8077 3.77614 70.0315 4 70.3077 4V3ZM74.1538 4C74.43 4 74.6538 3.77614 74.6538 3.5C74.6538 3.22386 74.43 3 74.1538 3V4ZM78 3C77.7239 3 77.5 3.22386 77.5 3.5C77.5 3.77614 77.7239 4 78 4V3ZM81.8461 4C82.1223 4 82.3461 3.77614 82.3461 3.5C82.3461 3.22386 82.1223 3 81.8461 3V4ZM85.6923 3C85.4162 3 85.1923 3.22386 85.1923 3.5C85.1923 3.77614 85.4162 4 85.6923 4V3ZM89.5385 4C89.8146 4 90.0385 3.77614 90.0385 3.5C90.0385 3.22386 89.8146 3 89.5385 3V4ZM93.3846 3C93.1085 3 92.8846 3.22386 92.8846 3.5C92.8846 3.77614 93.1085 4 93.3846 4V3ZM97.2308 4C97.5069 4 97.7308 3.77614 97.7308 3.5C97.7308 3.22386 97.5069 3 97.2308 3V4ZM101.077 3C100.801 3 100.577 3.22386 100.577 3.5C100.577 3.77614 100.801 4 101.077 4V3ZM3 3.5V4H4.92308V3.5V3H3V3.5ZM8.76923 3.5V4H12.6154V3.5V3H8.76923V3.5ZM16.4615 3.5V4H20.3077V3.5V3H16.4615V3.5ZM24.1538 3.5V4H28V3.5V3H24.1538V3.5ZM31.8462 3.5V4H35.6923V3.5V3H31.8462V3.5ZM39.5385 3.5V4H43.3846V3.5V3H39.5385V3.5ZM47.2308 3.5V4H51.0769V3.5V3H47.2308V3.5ZM54.9231 3.5V4H58.7692V3.5V3H54.9231V3.5ZM62.6154 3.5V4H66.4615V3.5V3H62.6154V3.5ZM70.3077 3.5V4H74.1538V3.5V3H70.3077V3.5ZM78 3.5V4H81.8461V3.5V3H78V3.5ZM85.6923 3.5V4H89.5385V3.5V3H85.6923V3.5ZM93.3846 3.5V4H97.2308V3.5V3H93.3846V3.5ZM101.077 3.5V4H103V3.5V3H101.077V3.5Z" fill="white" fill-opacity="0.6"/>
<path id="Line 5" d="M103 100.333C101.527 100.333 100.333 101.527 100.333 103C100.333 104.473 101.527 105.667 103 105.667C104.473 105.667 105.667 104.473 105.667 103C105.667 101.527 104.473 100.333 103 100.333ZM102.5 4.92308C102.5 5.19922 102.724 5.42308 103 5.42308C103.276 5.42308 103.5 5.19922 103.5 4.92308L102.5 4.92308ZM103.5 8.76923C103.5 8.49309 103.276 8.26923 103 8.26923C102.724 8.26923 102.5 8.49309 102.5 8.76923L103.5 8.76923ZM102.5 12.6154C102.5 12.8915 102.724 13.1154 103 13.1154C103.276 13.1154 103.5 12.8915 103.5 12.6154L102.5 12.6154ZM103.5 16.4615C103.5 16.1854 103.276 15.9615 103 15.9615C102.724 15.9615 102.5 16.1854 102.5 16.4615L103.5 16.4615ZM102.5 20.3077C102.5 20.5838 102.724 20.8077 103 20.8077C103.276 20.8077 103.5 20.5838 103.5 20.3077L102.5 20.3077ZM103.5 24.1538C103.5 23.8777 103.276 23.6538 103 23.6538C102.724 23.6538 102.5 23.8777 102.5 24.1538L103.5 24.1538ZM102.5 28C102.5 28.2761 102.724 28.5 103 28.5C103.276 28.5 103.5 28.2761 103.5 28L102.5 28ZM103.5 31.8462C103.5 31.57 103.276 31.3462 103 31.3462C102.724 31.3462 102.5 31.57 102.5 31.8462L103.5 31.8462ZM102.5 35.6923C102.5 35.9684 102.724 36.1923 103 36.1923C103.276 36.1923 103.5 35.9684 103.5 35.6923L102.5 35.6923ZM103.5 39.5385C103.5 39.2623 103.276 39.0385 103 39.0385C102.724 39.0385 102.5 39.2623 102.5 39.5385L103.5 39.5385ZM102.5 43.3846C102.5 43.6608 102.724 43.8846 103 43.8846C103.276 43.8846 103.5 43.6608 103.5 43.3846L102.5 43.3846ZM103.5 47.2308C103.5 46.9546 103.276 46.7308 103 46.7308C102.724 46.7308 102.5 46.9546 102.5 47.2308L103.5 47.2308ZM102.5 51.0769C102.5 51.3531 102.724 51.5769 103 51.5769C103.276 51.5769 103.5 51.3531 103.5 51.0769L102.5 51.0769ZM103.5 54.9231C103.5 54.6469 103.276 54.4231 103 54.4231C102.724 54.4231 102.5 54.6469 102.5 54.9231L103.5 54.9231ZM102.5 58.7692C102.5 59.0454 102.724 59.2692 103 59.2692C103.276 59.2692 103.5 59.0454 103.5 58.7692L102.5 58.7692ZM103.5 62.6154C103.5 62.3392 103.276 62.1154 103 62.1154C102.724 62.1154 102.5 62.3392 102.5 62.6154L103.5 62.6154ZM102.5 66.4615C102.5 66.7377 102.724 66.9615 103 66.9615C103.276 66.9615 103.5 66.7377 103.5 66.4615L102.5 66.4615ZM103.5 70.3077C103.5 70.0315 103.276 69.8077 103 69.8077C102.724 69.8077 102.5 70.0315 102.5 70.3077L103.5 70.3077ZM102.5 74.1538C102.5 74.43 102.724 74.6538 103 74.6538C103.276 74.6538 103.5 74.43 103.5 74.1538L102.5 74.1538ZM103.5 78C103.5 77.7239 103.276 77.5 103 77.5C102.724 77.5 102.5 77.7239 102.5 78L103.5 78ZM102.5 81.8461C102.5 82.1223 102.724 82.3461 103 82.3461C103.276 82.3461 103.5 82.1223 103.5 81.8461L102.5 81.8461ZM103.5 85.6923C103.5 85.4162 103.276 85.1923 103 85.1923C102.724 85.1923 102.5 85.4162 102.5 85.6923L103.5 85.6923ZM102.5 89.5385C102.5 89.8146 102.724 90.0385 103 90.0385C103.276 90.0385 103.5 89.8146 103.5 89.5385L102.5 89.5385ZM103.5 93.3846C103.5 93.1085 103.276 92.8846 103 92.8846C102.724 92.8846 102.5 93.1085 102.5 93.3846L103.5 93.3846ZM102.5 97.2308C102.5 97.5069 102.724 97.7308 103 97.7308C103.276 97.7308 103.5 97.5069 103.5 97.2308L102.5 97.2308ZM103.5 101.077C103.5 100.801 103.276 100.577 103 100.577C102.724 100.577 102.5 100.801 102.5 101.077L103.5 101.077ZM103 3L102.5 3L102.5 4.92308L103 4.92308L103.5 4.92308L103.5 3L103 3ZM103 8.76923L102.5 8.76923L102.5 12.6154L103 12.6154L103.5 12.6154L103.5 8.76923L103 8.76923ZM103 16.4615L102.5 16.4615L102.5 20.3077L103 20.3077L103.5 20.3077L103.5 16.4615L103 16.4615ZM103 24.1538L102.5 24.1538L102.5 28L103 28L103.5 28L103.5 24.1538L103 24.1538ZM103 31.8462L102.5 31.8462L102.5 35.6923L103 35.6923L103.5 35.6923L103.5 31.8462L103 31.8462ZM103 39.5385L102.5 39.5385L102.5 43.3846L103 43.3846L103.5 43.3846L103.5 39.5385L103 39.5385ZM103 47.2308L102.5 47.2308L102.5 51.0769L103 51.0769L103.5 51.0769L103.5 47.2308L103 47.2308ZM103 54.9231L102.5 54.9231L102.5 58.7692L103 58.7692L103.5 58.7692L103.5 54.9231L103 54.9231ZM103 62.6154L102.5 62.6154L102.5 66.4615L103 66.4615L103.5 66.4615L103.5 62.6154L103 62.6154ZM103 70.3077L102.5 70.3077L102.5 74.1538L103 74.1538L103.5 74.1538L103.5 70.3077L103 70.3077ZM103 78L102.5 78L102.5 81.8461L103 81.8461L103.5 81.8461L103.5 78L103 78ZM103 85.6923L102.5 85.6923L102.5 89.5385L103 89.5385L103.5 89.5385L103.5 85.6923L103 85.6923ZM103 93.3846L102.5 93.3846L102.5 97.2308L103 97.2308L103.5 97.2308L103.5 93.3846L103 93.3846ZM103 101.077L102.5 101.077L102.5 103L103 103L103.5 103L103.5 101.077L103 101.077Z" fill="white" fill-opacity="0.6"/>
<path id="Line 6" d="M2.99 5.66667C4.46276 5.66667 5.65667 4.47276 5.65667 3C5.65667 1.52724 4.46276 0.333333 2.99 0.333333C1.51724 0.333333 0.323336 1.52724 0.323336 3C0.323336 4.47276 1.51724 5.66667 2.99 5.66667ZM3.49 101.077C3.49 100.801 3.26614 100.577 2.99 100.577C2.71386 100.577 2.49 100.801 2.49 101.077L3.49 101.077ZM2.49 97.2308C2.49 97.5069 2.71386 97.7308 2.99 97.7308C3.26614 97.7308 3.49 97.5069 3.49 97.2308L2.49 97.2308ZM3.49 93.3846C3.49 93.1085 3.26614 92.8846 2.99 92.8846C2.71386 92.8846 2.49 93.1085 2.49 93.3846L3.49 93.3846ZM2.49 89.5385C2.49 89.8146 2.71386 90.0385 2.99 90.0385C3.26614 90.0385 3.49 89.8146 3.49 89.5385L2.49 89.5385ZM3.49 85.6923C3.49 85.4162 3.26614 85.1923 2.99 85.1923C2.71386 85.1923 2.49 85.4162 2.49 85.6923L3.49 85.6923ZM2.49 81.8462C2.49 82.1223 2.71386 82.3462 2.99 82.3462C3.26614 82.3462 3.49 82.1223 3.49 81.8462L2.49 81.8462ZM3.49 78C3.49 77.7239 3.26614 77.5 2.99 77.5C2.71386 77.5 2.49 77.7239 2.49 78L3.49 78ZM2.49 74.1538C2.49 74.43 2.71386 74.6538 2.99 74.6538C3.26614 74.6538 3.49 74.43 3.49 74.1538L2.49 74.1538ZM3.49 70.3077C3.49 70.0316 3.26614 69.8077 2.99 69.8077C2.71386 69.8077 2.49 70.0316 2.49 70.3077L3.49 70.3077ZM2.49 66.4615C2.49 66.7377 2.71386 66.9615 2.99 66.9615C3.26614 66.9615 3.49 66.7377 3.49 66.4615L2.49 66.4615ZM3.49 62.6154C3.49 62.3392 3.26614 62.1154 2.99 62.1154C2.71386 62.1154 2.49 62.3392 2.49 62.6154L3.49 62.6154ZM2.49 58.7692C2.49 59.0454 2.71386 59.2692 2.99 59.2692C3.26614 59.2692 3.49 59.0454 3.49 58.7692L2.49 58.7692ZM3.49 54.9231C3.49 54.6469 3.26614 54.4231 2.99 54.4231C2.71386 54.4231 2.49 54.6469 2.49 54.9231L3.49 54.9231ZM2.49 51.0769C2.49 51.3531 2.71386 51.5769 2.99 51.5769C3.26614 51.5769 3.49 51.3531 3.49 51.0769L2.49 51.0769ZM3.49 47.2308C3.49 46.9546 3.26614 46.7308 2.99 46.7308C2.71386 46.7308 2.49 46.9546 2.49 47.2308L3.49 47.2308ZM2.49 43.3846C2.49 43.6608 2.71386 43.8846 2.99 43.8846C3.26614 43.8846 3.49 43.6608 3.49 43.3846L2.49 43.3846ZM3.49 39.5385C3.49 39.2623 3.26614 39.0385 2.99 39.0385C2.71386 39.0385 2.49 39.2623 2.49 39.5385L3.49 39.5385ZM2.49 35.6923C2.49 35.9685 2.71386 36.1923 2.99 36.1923C3.26614 36.1923 3.49 35.9685 3.49 35.6923L2.49 35.6923ZM3.49 31.8462C3.49 31.57 3.26614 31.3462 2.99 31.3462C2.71386 31.3462 2.49 31.57 2.49 31.8462L3.49 31.8462ZM2.49 28C2.49 28.2761 2.71386 28.5 2.99 28.5C3.26614 28.5 3.49 28.2761 3.49 28L2.49 28ZM3.49 24.1539C3.49 23.8777 3.26614 23.6539 2.99 23.6539C2.71386 23.6539 2.49 23.8777 2.49 24.1539L3.49 24.1539ZM2.49 20.3077C2.49 20.5838 2.71386 20.8077 2.99 20.8077C3.26615 20.8077 3.49 20.5838 3.49 20.3077L2.49 20.3077ZM3.49 16.4615C3.49 16.1854 3.26615 15.9615 2.99 15.9615C2.71386 15.9615 2.49 16.1854 2.49 16.4615L3.49 16.4615ZM2.49 12.6154C2.49 12.8915 2.71386 13.1154 2.99 13.1154C3.26615 13.1154 3.49 12.8915 3.49 12.6154L2.49 12.6154ZM3.49 8.76924C3.49 8.4931 3.26615 8.26924 2.99 8.26924C2.71386 8.26924 2.49 8.4931 2.49 8.76924L3.49 8.76924ZM2.49 4.92309C2.49 5.19923 2.71386 5.42309 2.99 5.42309C3.26615 5.42309 3.49 5.19923 3.49 4.92309L2.49 4.92309ZM2.99 103L3.49 103L3.49 101.077L2.99 101.077L2.49 101.077L2.49 103L2.99 103ZM2.99 97.2308L3.49 97.2308L3.49 93.3846L2.99 93.3846L2.49 93.3846L2.49 97.2308L2.99 97.2308ZM2.99 89.5385L3.49 89.5385L3.49 85.6923L2.99 85.6923L2.49 85.6923L2.49 89.5385L2.99 89.5385ZM2.99 81.8462L3.49 81.8462L3.49 78L2.99 78L2.49 78L2.49 81.8462L2.99 81.8462ZM2.99 74.1538L3.49 74.1538L3.49 70.3077L2.99 70.3077L2.49 70.3077L2.49 74.1538L2.99 74.1538ZM2.99 66.4615L3.49 66.4615L3.49 62.6154L2.99 62.6154L2.49 62.6154L2.49 66.4615L2.99 66.4615ZM2.99 58.7692L3.49 58.7692L3.49 54.9231L2.99 54.9231L2.49 54.9231L2.49 58.7692L2.99 58.7692ZM2.99 51.0769L3.49 51.0769L3.49 47.2308L2.99 47.2308L2.49 47.2308L2.49 51.0769L2.99 51.0769ZM2.99 43.3846L3.49 43.3846L3.49 39.5385L2.99 39.5385L2.49 39.5385L2.49 43.3846L2.99 43.3846ZM2.99 35.6923L3.49 35.6923L3.49 31.8462L2.99 31.8462L2.49 31.8462L2.49 35.6923L2.99 35.6923ZM2.99 28L3.49 28L3.49 24.1539L2.99 24.1539L2.49 24.1539L2.49 28L2.99 28ZM2.99 20.3077L3.49 20.3077L3.49 16.4615L2.99 16.4615L2.49 16.4615L2.49 20.3077L2.99 20.3077ZM2.99 12.6154L3.49 12.6154L3.49 8.76924L2.99 8.76924L2.49 8.76924L2.49 12.6154L2.99 12.6154ZM2.99 4.92309L3.49 4.92309L3.49 3L2.99 3L2.49 3L2.49 4.92309L2.99 4.92309Z" fill="white" fill-opacity="0.6"/>
<path id="Line 7" d="M5.66667 103C5.66667 101.527 4.47276 100.333 3 100.333C1.52724 100.333 0.333333 101.527 0.333333 103C0.333333 104.473 1.52724 105.667 3 105.667C4.47276 105.667 5.66667 104.473 5.66667 103ZM101.077 102.5C100.801 102.5 100.577 102.724 100.577 103C100.577 103.276 100.801 103.5 101.077 103.5L101.077 102.5ZM97.2308 103.5C97.5069 103.5 97.7308 103.276 97.7308 103C97.7308 102.724 97.5069 102.5 97.2308 102.5L97.2308 103.5ZM93.3846 102.5C93.1085 102.5 92.8846 102.724 92.8846 103C92.8846 103.276 93.1085 103.5 93.3846 103.5L93.3846 102.5ZM89.5385 103.5C89.8146 103.5 90.0385 103.276 90.0385 103C90.0385 102.724 89.8146 102.5 89.5385 102.5L89.5385 103.5ZM85.6923 102.5C85.4162 102.5 85.1923 102.724 85.1923 103C85.1923 103.276 85.4162 103.5 85.6923 103.5L85.6923 102.5ZM81.8462 103.5C82.1223 103.5 82.3462 103.276 82.3462 103C82.3462 102.724 82.1223 102.5 81.8462 102.5L81.8462 103.5ZM78 102.5C77.7239 102.5 77.5 102.724 77.5 103C77.5 103.276 77.7239 103.5 78 103.5L78 102.5ZM74.1538 103.5C74.43 103.5 74.6538 103.276 74.6538 103C74.6538 102.724 74.43 102.5 74.1538 102.5L74.1538 103.5ZM70.3077 102.5C70.0316 102.5 69.8077 102.724 69.8077 103C69.8077 103.276 70.0316 103.5 70.3077 103.5L70.3077 102.5ZM66.4615 103.5C66.7377 103.5 66.9615 103.276 66.9615 103C66.9615 102.724 66.7377 102.5 66.4615 102.5L66.4615 103.5ZM62.6154 102.5C62.3392 102.5 62.1154 102.724 62.1154 103C62.1154 103.276 62.3392 103.5 62.6154 103.5L62.6154 102.5ZM58.7692 103.5C59.0454 103.5 59.2692 103.276 59.2692 103C59.2692 102.724 59.0454 102.5 58.7692 102.5L58.7692 103.5ZM54.9231 102.5C54.6469 102.5 54.4231 102.724 54.4231 103C54.4231 103.276 54.6469 103.5 54.9231 103.5L54.9231 102.5ZM51.0769 103.5C51.3531 103.5 51.5769 103.276 51.5769 103C51.5769 102.724 51.3531 102.5 51.0769 102.5L51.0769 103.5ZM47.2308 102.5C46.9546 102.5 46.7308 102.724 46.7308 103C46.7308 103.276 46.9546 103.5 47.2308 103.5L47.2308 102.5ZM43.3846 103.5C43.6608 103.5 43.8846 103.276 43.8846 103C43.8846 102.724 43.6608 102.5 43.3846 102.5L43.3846 103.5ZM39.5385 102.5C39.2623 102.5 39.0385 102.724 39.0385 103C39.0385 103.276 39.2623 103.5 39.5385 103.5L39.5385 102.5ZM35.6923 103.5C35.9685 103.5 36.1923 103.276 36.1923 103C36.1923 102.724 35.9685 102.5 35.6923 102.5L35.6923 103.5ZM31.8462 102.5C31.57 102.5 31.3462 102.724 31.3462 103C31.3462 103.276 31.57 103.5 31.8462 103.5L31.8462 102.5ZM28 103.5C28.2761 103.5 28.5 103.276 28.5 103C28.5 102.724 28.2761 102.5 28 102.5L28 103.5ZM24.1539 102.5C23.8777 102.5 23.6539 102.724 23.6539 103C23.6539 103.276 23.8777 103.5 24.1539 103.5L24.1539 102.5ZM20.3077 103.5C20.5838 103.5 20.8077 103.276 20.8077 103C20.8077 102.724 20.5838 102.5 20.3077 102.5L20.3077 103.5ZM16.4615 102.5C16.1854 102.5 15.9615 102.724 15.9615 103C15.9615 103.276 16.1854 103.5 16.4615 103.5L16.4615 102.5ZM12.6154 103.5C12.8915 103.5 13.1154 103.276 13.1154 103C13.1154 102.724 12.8915 102.5 12.6154 102.5L12.6154 103.5ZM8.76924 102.5C8.4931 102.5 8.26924 102.724 8.26924 103C8.26924 103.276 8.4931 103.5 8.76924 103.5L8.76924 102.5ZM4.92309 103.5C5.19923 103.5 5.42309 103.276 5.42309 103C5.42309 102.724 5.19923 102.5 4.92309 102.5L4.92309 103.5ZM103 103L103 102.5L101.077 102.5L101.077 103L101.077 103.5L103 103.5L103 103ZM97.2308 103L97.2308 102.5L93.3846 102.5L93.3846 103L93.3846 103.5L97.2308 103.5L97.2308 103ZM89.5385 103L89.5385 102.5L85.6923 102.5L85.6923 103L85.6923 103.5L89.5385 103.5L89.5385 103ZM81.8462 103L81.8462 102.5L78 102.5L78 103L78 103.5L81.8462 103.5L81.8462 103ZM74.1538 103L74.1538 102.5L70.3077 102.5L70.3077 103L70.3077 103.5L74.1538 103.5L74.1538 103ZM66.4615 103L66.4615 102.5L62.6154 102.5L62.6154 103L62.6154 103.5L66.4615 103.5L66.4615 103ZM58.7692 103L58.7692 102.5L54.9231 102.5L54.9231 103L54.9231 103.5L58.7692 103.5L58.7692 103ZM51.0769 103L51.0769 102.5L47.2308 102.5L47.2308 103L47.2308 103.5L51.0769 103.5L51.0769 103ZM43.3846 103L43.3846 102.5L39.5385 102.5L39.5385 103L39.5385 103.5L43.3846 103.5L43.3846 103ZM35.6923 103L35.6923 102.5L31.8462 102.5L31.8462 103L31.8462 103.5L35.6923 103.5L35.6923 103ZM28 103L28 102.5L24.1539 102.5L24.1539 103L24.1539 103.5L28 103.5L28 103ZM20.3077 103L20.3077 102.5L16.4615 102.5L16.4615 103L16.4615 103.5L20.3077 103.5L20.3077 103ZM12.6154 103L12.6154 102.5L8.76924 102.5L8.76924 103L8.76924 103.5L12.6154 103.5L12.6154 103ZM4.92309 103L4.92309 102.5L3 102.5L3 103L3 103.5L4.92309 103.5L4.92309 103Z" fill="white" fill-opacity="0.6"/>
</g>
</svg>
