<svg width="103" height="7" viewBox="0 0 103 7" fill="none" xmlns="http://www.w3.org/2000/svg">
<path id="Line 4" d="M97.3333 3.5C97.3333 4.97276 98.5272 6.16667 100 6.16667C101.473 6.16667 102.667 4.97276 102.667 3.5C102.667 2.02724 101.473 0.833333 100 0.833333C98.5272 0.833333 97.3333 2.02724 97.3333 3.5ZM1.92308 4C2.19922 4 2.42308 3.77614 2.42308 3.5C2.42308 3.22386 2.19922 3 1.92308 3V4ZM5.76923 3C5.49309 3 5.26923 3.22386 5.26923 3.5C5.26923 3.77614 5.49309 4 5.76923 4V3ZM9.61538 4C9.89153 4 10.1154 3.77614 10.1154 3.5C10.1154 3.22386 9.89153 3 9.61538 3V4ZM13.4615 3C13.1854 3 12.9615 3.22386 12.9615 3.5C12.9615 3.77614 13.1854 4 13.4615 4V3ZM17.3077 4C17.5838 4 17.8077 3.77614 17.8077 3.5C17.8077 3.22386 17.5838 3 17.3077 3V4ZM21.1538 3C20.8777 3 20.6538 3.22386 20.6538 3.5C20.6538 3.77614 20.8777 4 21.1538 4V3ZM25 4C25.2761 4 25.5 3.77614 25.5 3.5C25.5 3.22386 25.2761 3 25 3V4ZM28.8462 3C28.57 3 28.3462 3.22386 28.3462 3.5C28.3462 3.77614 28.57 4 28.8462 4V3ZM32.6923 4C32.9684 4 33.1923 3.77614 33.1923 3.5C33.1923 3.22386 32.9684 3 32.6923 3V4ZM36.5385 3C36.2623 3 36.0385 3.22386 36.0385 3.5C36.0385 3.77614 36.2623 4 36.5385 4V3ZM40.3846 4C40.6608 4 40.8846 3.77614 40.8846 3.5C40.8846 3.22386 40.6608 3 40.3846 3V4ZM44.2308 3C43.9546 3 43.7308 3.22386 43.7308 3.5C43.7308 3.77614 43.9546 4 44.2308 4V3ZM48.0769 4C48.3531 4 48.5769 3.77614 48.5769 3.5C48.5769 3.22386 48.3531 3 48.0769 3V4ZM51.9231 3C51.6469 3 51.4231 3.22386 51.4231 3.5C51.4231 3.77614 51.6469 4 51.9231 4V3ZM55.7692 4C56.0454 4 56.2692 3.77614 56.2692 3.5C56.2692 3.22386 56.0454 3 55.7692 3V4ZM59.6154 3C59.3392 3 59.1154 3.22386 59.1154 3.5C59.1154 3.77614 59.3392 4 59.6154 4V3ZM63.4615 4C63.7377 4 63.9615 3.77614 63.9615 3.5C63.9615 3.22386 63.7377 3 63.4615 3V4ZM67.3077 3C67.0315 3 66.8077 3.22386 66.8077 3.5C66.8077 3.77614 67.0315 4 67.3077 4V3ZM71.1538 4C71.43 4 71.6538 3.77614 71.6538 3.5C71.6538 3.22386 71.43 3 71.1538 3V4ZM75 3C74.7239 3 74.5 3.22386 74.5 3.5C74.5 3.77614 74.7239 4 75 4V3ZM78.8461 4C79.1223 4 79.3461 3.77614 79.3461 3.5C79.3461 3.22386 79.1223 3 78.8461 3V4ZM82.6923 3C82.4162 3 82.1923 3.22386 82.1923 3.5C82.1923 3.77614 82.4162 4 82.6923 4V3ZM86.5385 4C86.8146 4 87.0385 3.77614 87.0385 3.5C87.0385 3.22386 86.8146 3 86.5385 3V4ZM90.3846 3C90.1085 3 89.8846 3.22386 89.8846 3.5C89.8846 3.77614 90.1085 4 90.3846 4V3ZM94.2308 4C94.5069 4 94.7308 3.77614 94.7308 3.5C94.7308 3.22386 94.5069 3 94.2308 3V4ZM98.0769 3C97.8008 3 97.5769 3.22386 97.5769 3.5C97.5769 3.77614 97.8008 4 98.0769 4V3ZM0 3.5V4H1.92308V3.5V3H0V3.5ZM5.76923 3.5V4H9.61538V3.5V3H5.76923V3.5ZM13.4615 3.5V4H17.3077V3.5V3H13.4615V3.5ZM21.1538 3.5V4H25V3.5V3H21.1538V3.5ZM28.8462 3.5V4H32.6923V3.5V3H28.8462V3.5ZM36.5385 3.5V4H40.3846V3.5V3H36.5385V3.5ZM44.2308 3.5V4H48.0769V3.5V3H44.2308V3.5ZM51.9231 3.5V4H55.7692V3.5V3H51.9231V3.5ZM59.6154 3.5V4H63.4615V3.5V3H59.6154V3.5ZM67.3077 3.5V4H71.1538V3.5V3H67.3077V3.5ZM75 3.5V4H78.8461V3.5V3H75V3.5ZM82.6923 3.5V4H86.5385V3.5V3H82.6923V3.5ZM90.3846 3.5V4H94.2308V3.5V3H90.3846V3.5ZM98.0769 3.5V4H100V3.5V3H98.0769V3.5Z" fill="white" fill-opacity="0.6"/>
</svg>
