<svg width="6" height="103" viewBox="0 0 6 103" fill="none" xmlns="http://www.w3.org/2000/svg">
<path id="Line 6" d="M2.99 5.66667C4.46276 5.66667 5.65667 4.47276 5.65667 3C5.65667 1.52724 4.46276 0.333333 2.99 0.333333C1.51724 0.333333 0.323336 1.52724 0.323336 3C0.323336 4.47276 1.51724 5.66667 2.99 5.66667ZM3.49 101.077C3.49 100.801 3.26614 100.577 2.99 100.577C2.71386 100.577 2.49 100.801 2.49 101.077L3.49 101.077ZM2.49 97.2308C2.49 97.5069 2.71386 97.7308 2.99 97.7308C3.26614 97.7308 3.49 97.5069 3.49 97.2308L2.49 97.2308ZM3.49 93.3846C3.49 93.1085 3.26614 92.8846 2.99 92.8846C2.71386 92.8846 2.49 93.1085 2.49 93.3846L3.49 93.3846ZM2.49 89.5385C2.49 89.8146 2.71386 90.0385 2.99 90.0385C3.26614 90.0385 3.49 89.8146 3.49 89.5385L2.49 89.5385ZM3.49 85.6923C3.49 85.4162 3.26614 85.1923 2.99 85.1923C2.71386 85.1923 2.49 85.4162 2.49 85.6923L3.49 85.6923ZM2.49 81.8462C2.49 82.1223 2.71386 82.3462 2.99 82.3462C3.26614 82.3462 3.49 82.1223 3.49 81.8462L2.49 81.8462ZM3.49 78C3.49 77.7239 3.26614 77.5 2.99 77.5C2.71386 77.5 2.49 77.7239 2.49 78L3.49 78ZM2.49 74.1538C2.49 74.43 2.71386 74.6538 2.99 74.6538C3.26614 74.6538 3.49 74.43 3.49 74.1538L2.49 74.1538ZM3.49 70.3077C3.49 70.0316 3.26614 69.8077 2.99 69.8077C2.71386 69.8077 2.49 70.0316 2.49 70.3077L3.49 70.3077ZM2.49 66.4615C2.49 66.7377 2.71386 66.9615 2.99 66.9615C3.26614 66.9615 3.49 66.7377 3.49 66.4615L2.49 66.4615ZM3.49 62.6154C3.49 62.3392 3.26614 62.1154 2.99 62.1154C2.71386 62.1154 2.49 62.3392 2.49 62.6154L3.49 62.6154ZM2.49 58.7692C2.49 59.0454 2.71386 59.2692 2.99 59.2692C3.26614 59.2692 3.49 59.0454 3.49 58.7692L2.49 58.7692ZM3.49 54.9231C3.49 54.6469 3.26614 54.4231 2.99 54.4231C2.71386 54.4231 2.49 54.6469 2.49 54.9231L3.49 54.9231ZM2.49 51.0769C2.49 51.3531 2.71386 51.5769 2.99 51.5769C3.26614 51.5769 3.49 51.3531 3.49 51.0769L2.49 51.0769ZM3.49 47.2308C3.49 46.9546 3.26614 46.7308 2.99 46.7308C2.71386 46.7308 2.49 46.9546 2.49 47.2308L3.49 47.2308ZM2.49 43.3846C2.49 43.6608 2.71386 43.8846 2.99 43.8846C3.26614 43.8846 3.49 43.6608 3.49 43.3846L2.49 43.3846ZM3.49 39.5385C3.49 39.2623 3.26614 39.0385 2.99 39.0385C2.71386 39.0385 2.49 39.2623 2.49 39.5385L3.49 39.5385ZM2.49 35.6923C2.49 35.9685 2.71386 36.1923 2.99 36.1923C3.26614 36.1923 3.49 35.9685 3.49 35.6923L2.49 35.6923ZM3.49 31.8462C3.49 31.57 3.26614 31.3462 2.99 31.3462C2.71386 31.3462 2.49 31.57 2.49 31.8462L3.49 31.8462ZM2.49 28C2.49 28.2761 2.71386 28.5 2.99 28.5C3.26614 28.5 3.49 28.2761 3.49 28L2.49 28ZM3.49 24.1539C3.49 23.8777 3.26614 23.6539 2.99 23.6539C2.71386 23.6539 2.49 23.8777 2.49 24.1539L3.49 24.1539ZM2.49 20.3077C2.49 20.5838 2.71386 20.8077 2.99 20.8077C3.26615 20.8077 3.49 20.5838 3.49 20.3077L2.49 20.3077ZM3.49 16.4615C3.49 16.1854 3.26615 15.9615 2.99 15.9615C2.71386 15.9615 2.49 16.1854 2.49 16.4615L3.49 16.4615ZM2.49 12.6154C2.49 12.8915 2.71386 13.1154 2.99 13.1154C3.26615 13.1154 3.49 12.8915 3.49 12.6154L2.49 12.6154ZM3.49 8.76924C3.49 8.4931 3.26615 8.26924 2.99 8.26924C2.71386 8.26924 2.49 8.4931 2.49 8.76924L3.49 8.76924ZM2.49 4.92309C2.49 5.19923 2.71386 5.42309 2.99 5.42309C3.26615 5.42309 3.49 5.19923 3.49 4.92309L2.49 4.92309ZM2.99 103L3.49 103L3.49 101.077L2.99 101.077L2.49 101.077L2.49 103L2.99 103ZM2.99 97.2308L3.49 97.2308L3.49 93.3846L2.99 93.3846L2.49 93.3846L2.49 97.2308L2.99 97.2308ZM2.99 89.5385L3.49 89.5385L3.49 85.6923L2.99 85.6923L2.49 85.6923L2.49 89.5385L2.99 89.5385ZM2.99 81.8462L3.49 81.8462L3.49 78L2.99 78L2.49 78L2.49 81.8462L2.99 81.8462ZM2.99 74.1538L3.49 74.1538L3.49 70.3077L2.99 70.3077L2.49 70.3077L2.49 74.1538L2.99 74.1538ZM2.99 66.4615L3.49 66.4615L3.49 62.6154L2.99 62.6154L2.49 62.6154L2.49 66.4615L2.99 66.4615ZM2.99 58.7692L3.49 58.7692L3.49 54.9231L2.99 54.9231L2.49 54.9231L2.49 58.7692L2.99 58.7692ZM2.99 51.0769L3.49 51.0769L3.49 47.2308L2.99 47.2308L2.49 47.2308L2.49 51.0769L2.99 51.0769ZM2.99 43.3846L3.49 43.3846L3.49 39.5385L2.99 39.5385L2.49 39.5385L2.49 43.3846L2.99 43.3846ZM2.99 35.6923L3.49 35.6923L3.49 31.8462L2.99 31.8462L2.49 31.8462L2.49 35.6923L2.99 35.6923ZM2.99 28L3.49 28L3.49 24.1539L2.99 24.1539L2.49 24.1539L2.49 28L2.99 28ZM2.99 20.3077L3.49 20.3077L3.49 16.4615L2.99 16.4615L2.49 16.4615L2.49 20.3077L2.99 20.3077ZM2.99 12.6154L3.49 12.6154L3.49 8.76924L2.99 8.76924L2.49 8.76924L2.49 12.6154L2.99 12.6154ZM2.99 4.92309L3.49 4.92309L3.49 3L2.99 3L2.49 3L2.49 4.92309L2.99 4.92309Z" fill="white" fill-opacity="0.6"/>
</svg>
