<svg width="6" height="103" viewBox="0 0 6 103" fill="none" xmlns="http://www.w3.org/2000/svg">
<path id="Line 5" d="M3 97.3333C1.52724 97.3333 0.333338 98.5272 0.333338 100C0.333338 101.473 1.52725 102.667 3 102.667C4.47276 102.667 5.66667 101.473 5.66667 100C5.66667 98.5272 4.47276 97.3333 3 97.3333ZM2.5 1.92308C2.5 2.19922 2.72386 2.42308 3 2.42308C3.27614 2.42308 3.5 2.19922 3.5 1.92308L2.5 1.92308ZM3.5 5.76923C3.5 5.49309 3.27614 5.26923 3 5.26923C2.72386 5.26923 2.5 5.49309 2.5 5.76923L3.5 5.76923ZM2.5 9.61538C2.5 9.89153 2.72386 10.1154 3 10.1154C3.27614 10.1154 3.5 9.89153 3.5 9.61538L2.5 9.61538ZM3.5 13.4615C3.5 13.1854 3.27614 12.9615 3 12.9615C2.72386 12.9615 2.5 13.1854 2.5 13.4615L3.5 13.4615ZM2.5 17.3077C2.5 17.5838 2.72386 17.8077 3 17.8077C3.27614 17.8077 3.5 17.5838 3.5 17.3077L2.5 17.3077ZM3.5 21.1538C3.5 20.8777 3.27614 20.6538 3 20.6538C2.72386 20.6538 2.5 20.8777 2.5 21.1538L3.5 21.1538ZM2.5 25C2.5 25.2761 2.72386 25.5 3 25.5C3.27614 25.5 3.5 25.2761 3.5 25L2.5 25ZM3.5 28.8462C3.5 28.57 3.27614 28.3462 3 28.3462C2.72386 28.3462 2.5 28.57 2.5 28.8462L3.5 28.8462ZM2.5 32.6923C2.5 32.9684 2.72386 33.1923 3 33.1923C3.27614 33.1923 3.5 32.9684 3.5 32.6923L2.5 32.6923ZM3.5 36.5385C3.5 36.2623 3.27614 36.0385 3 36.0385C2.72386 36.0385 2.5 36.2623 2.5 36.5385L3.5 36.5385ZM2.5 40.3846C2.5 40.6608 2.72386 40.8846 3 40.8846C3.27614 40.8846 3.5 40.6608 3.5 40.3846L2.5 40.3846ZM3.5 44.2308C3.5 43.9546 3.27614 43.7308 3 43.7308C2.72386 43.7308 2.5 43.9546 2.5 44.2308L3.5 44.2308ZM2.5 48.0769C2.5 48.3531 2.72386 48.5769 3 48.5769C3.27614 48.5769 3.5 48.3531 3.5 48.0769L2.5 48.0769ZM3.5 51.9231C3.5 51.6469 3.27614 51.4231 3 51.4231C2.72386 51.4231 2.5 51.6469 2.5 51.9231L3.5 51.9231ZM2.5 55.7692C2.5 56.0454 2.72386 56.2692 3 56.2692C3.27614 56.2692 3.5 56.0454 3.5 55.7692L2.5 55.7692ZM3.5 59.6154C3.5 59.3392 3.27614 59.1154 3 59.1154C2.72386 59.1154 2.5 59.3392 2.5 59.6154L3.5 59.6154ZM2.5 63.4615C2.5 63.7377 2.72386 63.9615 3 63.9615C3.27615 63.9615 3.5 63.7377 3.5 63.4615L2.5 63.4615ZM3.5 67.3077C3.5 67.0315 3.27615 66.8077 3 66.8077C2.72386 66.8077 2.5 67.0315 2.5 67.3077L3.5 67.3077ZM2.5 71.1538C2.5 71.43 2.72386 71.6538 3 71.6538C3.27615 71.6538 3.5 71.43 3.5 71.1538L2.5 71.1538ZM3.5 75C3.5 74.7239 3.27615 74.5 3 74.5C2.72386 74.5 2.5 74.7239 2.5 75L3.5 75ZM2.5 78.8461C2.5 79.1223 2.72386 79.3461 3 79.3461C3.27615 79.3461 3.5 79.1223 3.5 78.8461L2.5 78.8461ZM3.5 82.6923C3.5 82.4162 3.27615 82.1923 3 82.1923C2.72386 82.1923 2.5 82.4162 2.5 82.6923L3.5 82.6923ZM2.5 86.5385C2.5 86.8146 2.72386 87.0385 3 87.0385C3.27615 87.0385 3.5 86.8146 3.5 86.5385L2.5 86.5385ZM3.5 90.3846C3.5 90.1085 3.27615 89.8846 3 89.8846C2.72386 89.8846 2.5 90.1085 2.5 90.3846L3.5 90.3846ZM2.5 94.2308C2.5 94.5069 2.72386 94.7308 3 94.7308C3.27615 94.7308 3.5 94.5069 3.5 94.2308L2.5 94.2308ZM3.5 98.0769C3.5 97.8008 3.27615 97.5769 3 97.5769C2.72386 97.5769 2.5 97.8008 2.5 98.0769L3.5 98.0769ZM3 0L2.5 2.18557e-08L2.5 1.92308L3 1.92308L3.5 1.92308L3.5 -2.18557e-08L3 0ZM3 5.76923L2.5 5.76923L2.5 9.61538L3 9.61538L3.5 9.61538L3.5 5.76923L3 5.76923ZM3 13.4615L2.5 13.4615L2.5 17.3077L3 17.3077L3.5 17.3077L3.5 13.4615L3 13.4615ZM3 21.1538L2.5 21.1538L2.5 25L3 25L3.5 25L3.5 21.1538L3 21.1538ZM3 28.8462L2.5 28.8462L2.5 32.6923L3 32.6923L3.5 32.6923L3.5 28.8462L3 28.8462ZM3 36.5385L2.5 36.5385L2.5 40.3846L3 40.3846L3.5 40.3846L3.5 36.5385L3 36.5385ZM3 44.2308L2.5 44.2308L2.5 48.0769L3 48.0769L3.5 48.0769L3.5 44.2308L3 44.2308ZM3 51.9231L2.5 51.9231L2.5 55.7692L3 55.7692L3.5 55.7692L3.5 51.9231L3 51.9231ZM3 59.6154L2.5 59.6154L2.5 63.4615L3 63.4615L3.5 63.4615L3.5 59.6154L3 59.6154ZM3 67.3077L2.5 67.3077L2.5 71.1538L3 71.1538L3.5 71.1538L3.5 67.3077L3 67.3077ZM3 75L2.5 75L2.5 78.8461L3 78.8461L3.5 78.8461L3.5 75L3 75ZM3 82.6923L2.5 82.6923L2.5 86.5385L3 86.5385L3.5 86.5385L3.5 82.6923L3 82.6923ZM3 90.3846L2.5 90.3846L2.5 94.2308L3 94.2308L3.5 94.2308L3.5 90.3846L3 90.3846ZM3 98.0769L2.5 98.0769L2.5 100L3 100L3.5 100L3.5 98.0769L3 98.0769Z" fill="white" fill-opacity="0.6"/>
</svg>
