<svg width="103" height="6" viewBox="0 0 103 6" fill="none" xmlns="http://www.w3.org/2000/svg">
<path id="Line 7" d="M5.66667 2.99999C5.66667 1.52723 4.47276 0.333325 3 0.333325C1.52724 0.333324 0.333333 1.52723 0.333333 2.99999C0.333333 4.47275 1.52724 5.66666 3 5.66666C4.47276 5.66666 5.66667 4.47275 5.66667 2.99999ZM101.077 2.5C100.801 2.5 100.577 2.72386 100.577 3C100.577 3.27614 100.801 3.5 101.077 3.5L101.077 2.5ZM97.2308 3.5C97.5069 3.5 97.7308 3.27614 97.7308 3C97.7308 2.72386 97.5069 2.5 97.2308 2.5L97.2308 3.5ZM93.3846 2.5C93.1085 2.5 92.8846 2.72386 92.8846 3C92.8846 3.27614 93.1085 3.5 93.3846 3.5L93.3846 2.5ZM89.5385 3.5C89.8146 3.5 90.0385 3.27614 90.0385 3C90.0385 2.72386 89.8146 2.5 89.5385 2.5L89.5385 3.5ZM85.6923 2.5C85.4162 2.5 85.1923 2.72386 85.1923 3C85.1923 3.27614 85.4162 3.5 85.6923 3.5L85.6923 2.5ZM81.8462 3.5C82.1223 3.5 82.3462 3.27614 82.3462 3C82.3462 2.72386 82.1223 2.5 81.8462 2.5L81.8462 3.5ZM78 2.5C77.7239 2.5 77.5 2.72386 77.5 3C77.5 3.27614 77.7239 3.5 78 3.5L78 2.5ZM74.1538 3.5C74.43 3.5 74.6538 3.27614 74.6538 3C74.6538 2.72386 74.43 2.5 74.1538 2.5L74.1538 3.5ZM70.3077 2.5C70.0316 2.5 69.8077 2.72385 69.8077 3C69.8077 3.27614 70.0316 3.5 70.3077 3.5L70.3077 2.5ZM66.4615 3.5C66.7377 3.5 66.9615 3.27614 66.9615 3C66.9615 2.72385 66.7377 2.5 66.4615 2.5L66.4615 3.5ZM62.6154 2.5C62.3392 2.5 62.1154 2.72385 62.1154 3C62.1154 3.27614 62.3392 3.5 62.6154 3.5L62.6154 2.5ZM58.7692 3.5C59.0454 3.5 59.2692 3.27614 59.2692 3C59.2692 2.72385 59.0454 2.5 58.7692 2.5L58.7692 3.5ZM54.9231 2.5C54.6469 2.5 54.4231 2.72385 54.4231 3C54.4231 3.27614 54.6469 3.5 54.9231 3.5L54.9231 2.5ZM51.0769 3.5C51.3531 3.5 51.5769 3.27614 51.5769 3C51.5769 2.72385 51.3531 2.5 51.0769 2.5L51.0769 3.5ZM47.2308 2.5C46.9546 2.5 46.7308 2.72385 46.7308 3C46.7308 3.27614 46.9546 3.5 47.2308 3.5L47.2308 2.5ZM43.3846 3.49999C43.6608 3.49999 43.8846 3.27614 43.8846 2.99999C43.8846 2.72385 43.6608 2.49999 43.3846 2.49999L43.3846 3.49999ZM39.5385 2.49999C39.2623 2.49999 39.0385 2.72385 39.0385 2.99999C39.0385 3.27614 39.2623 3.49999 39.5385 3.49999L39.5385 2.49999ZM35.6923 3.49999C35.9685 3.49999 36.1923 3.27614 36.1923 2.99999C36.1923 2.72385 35.9685 2.49999 35.6923 2.49999L35.6923 3.49999ZM31.8462 2.49999C31.57 2.49999 31.3462 2.72385 31.3462 2.99999C31.3462 3.27614 31.57 3.49999 31.8462 3.49999L31.8462 2.49999ZM28 3.49999C28.2761 3.49999 28.5 3.27614 28.5 2.99999C28.5 2.72385 28.2761 2.49999 28 2.49999L28 3.49999ZM24.1539 2.49999C23.8777 2.49999 23.6539 2.72385 23.6539 2.99999C23.6539 3.27614 23.8777 3.49999 24.1539 3.49999L24.1539 2.49999ZM20.3077 3.49999C20.5838 3.49999 20.8077 3.27614 20.8077 2.99999C20.8077 2.72385 20.5838 2.49999 20.3077 2.49999L20.3077 3.49999ZM16.4615 2.49999C16.1854 2.49999 15.9615 2.72385 15.9615 2.99999C15.9615 3.27613 16.1854 3.49999 16.4615 3.49999L16.4615 2.49999ZM12.6154 3.49999C12.8915 3.49999 13.1154 3.27613 13.1154 2.99999C13.1154 2.72385 12.8915 2.49999 12.6154 2.49999L12.6154 3.49999ZM8.76924 2.49999C8.4931 2.49999 8.26924 2.72385 8.26924 2.99999C8.26924 3.27613 8.4931 3.49999 8.76924 3.49999L8.76924 2.49999ZM4.92309 3.49999C5.19923 3.49999 5.42309 3.27613 5.42309 2.99999C5.42309 2.72385 5.19923 2.49999 4.92309 2.49999L4.92309 3.49999ZM103 3L103 2.5L101.077 2.5L101.077 3L101.077 3.5L103 3.5L103 3ZM97.2308 3L97.2308 2.5L93.3846 2.5L93.3846 3L93.3846 3.5L97.2308 3.5L97.2308 3ZM89.5385 3L89.5385 2.5L85.6923 2.5L85.6923 3L85.6923 3.5L89.5385 3.5L89.5385 3ZM81.8462 3L81.8462 2.5L78 2.5L78 3L78 3.5L81.8462 3.5L81.8462 3ZM74.1538 3L74.1538 2.5L70.3077 2.5L70.3077 3L70.3077 3.5L74.1538 3.5L74.1538 3ZM66.4615 3L66.4615 2.5L62.6154 2.5L62.6154 3L62.6154 3.5L66.4615 3.5L66.4615 3ZM58.7692 3L58.7692 2.5L54.9231 2.5L54.9231 3L54.9231 3.5L58.7692 3.5L58.7692 3ZM51.0769 3L51.0769 2.5L47.2308 2.5L47.2308 3L47.2308 3.5L51.0769 3.5L51.0769 3ZM43.3846 2.99999L43.3846 2.49999L39.5385 2.49999L39.5385 2.99999L39.5385 3.49999L43.3846 3.49999L43.3846 2.99999ZM35.6923 2.99999L35.6923 2.49999L31.8462 2.49999L31.8462 2.99999L31.8462 3.49999L35.6923 3.49999L35.6923 2.99999ZM28 2.99999L28 2.49999L24.1539 2.49999L24.1539 2.99999L24.1539 3.49999L28 3.49999L28 2.99999ZM20.3077 2.99999L20.3077 2.49999L16.4615 2.49999L16.4615 2.99999L16.4615 3.49999L20.3077 3.49999L20.3077 2.99999ZM12.6154 2.99999L12.6154 2.49999L8.76924 2.49999L8.76924 2.99999L8.76924 3.49999L12.6154 3.49999L12.6154 2.99999ZM4.92309 2.99999L4.92309 2.49999L3 2.49999L3 2.99999L3 3.49999L4.92309 3.49999L4.92309 2.99999Z" fill="white" fill-opacity="0.6"/>
</svg>
