<svg width="129" height="27" viewBox="0 0 129 27" fill="none" xmlns="http://www.w3.org/2000/svg">
<path d="M0.278409 5.3821V0.818181H21.7812V5.3821H13.7656V27H8.29403V5.3821H0.278409ZM31.2159 27L23.7244 0.818181H29.7713L34.1051 19.0099H34.3224L39.1037 0.818181H44.2812L49.0497 19.0483H49.2798L53.6136 0.818181H59.6605L52.169 27H46.7741L41.7884 9.8821H41.5838L36.6108 27H31.2159ZM62.6232 27V0.818181H80.2653V5.3821H68.1587V11.6207H79.3576V16.1847H68.1587V22.4361H80.3164V27H62.6232ZM84.6662 27V0.818181H102.308V5.3821H90.2017V11.6207H101.401V16.1847H90.2017V22.4361H102.359V27H84.6662ZM128.608 0.818181V27H123.827L112.436 10.5213H112.245V27H106.709V0.818181H111.567L122.868 17.2841H123.098V0.818181H128.608Z" fill="white"/>
</svg>
